<?xml version="1.0" encoding="UTF-8" standalone="no"?>
<!-- Created with Inkscape (http://www.inkscape.org/) -->

<svg
   xmlns:dc="http://purl.org/dc/elements/1.1/"
   xmlns:cc="http://creativecommons.org/ns#"
   xmlns:rdf="http://www.w3.org/1999/02/22-rdf-syntax-ns#"
   xmlns:svg="http://www.w3.org/2000/svg"
   xmlns="http://www.w3.org/2000/svg"
   xmlns:sodipodi="http://sodipodi.sourceforge.net/DTD/sodipodi-0.dtd"
   xmlns:inkscape="http://www.inkscape.org/namespaces/inkscape"
   version="1.1"
   id="svg10"
   width="512"
   height="512"
   viewBox="0 0 512 512"
   sodipodi:docname="flashnodelogo.svg"
   inkscape:version="0.92.4 (5da689c313, 2019-01-14)"
   inkscape:export-filename="D:\Users\oreo4\Downloads\flashnodelogo.png"
   inkscape:export-xdpi="96"
   inkscape:export-ydpi="96">
  <metadata
     id="metadata16">
    <rdf:RDF>
      <cc:Work
         rdf:about="">
        <dc:format>image/svg+xml</dc:format>
        <dc:type
           rdf:resource="http://purl.org/dc/dcmitype/StillImage" />
        <dc:title></dc:title>
      </cc:Work>
    </rdf:RDF>
  </metadata>
  <defs
     id="defs14">
    <clipPath
       clipPathUnits="userSpaceOnUse"
       id="clipPath6077">
      <path
         style="fill:none;fill-opacity:1;stroke:#000000;stroke-width:1px;stroke-linecap:butt;stroke-linejoin:miter;stroke-opacity:1"
         d="m 140.17972,239.99451 71.98105,41.55828 -68.13537,34.00121 36.47557,21.05918 -68.50435,32.62405 37.15464,21.45124 -174.309927,23.66362 83.003583,-59.30568 -36.572573,-21.11519 68.377338,-32.18 -37.542678,-21.67528 z"
         id="path6079"
         inkscape:connector-curvature="0" />
    </clipPath>
    <clipPath
       clipPathUnits="userSpaceOnUse"
       id="clipPath6081">
      <path
         style="fill:none;fill-opacity:1;stroke:#000000;stroke-width:1px;stroke-linecap:butt;stroke-linejoin:miter;stroke-opacity:1"
         d="m 140.17972,239.99451 71.98105,41.55828 -68.13537,34.00121 36.47557,21.05918 -68.50435,32.62405 37.15464,21.45124 -174.309927,23.66362 83.003583,-59.30568 -36.572573,-21.11519 68.377338,-32.18 -37.542678,-21.67528 z"
         id="path6083"
         inkscape:connector-curvature="0" />
    </clipPath>
    <clipPath
       clipPathUnits="userSpaceOnUse"
       id="clipPath6085">
      <path
         style="fill:none;fill-opacity:1;stroke:#000000;stroke-width:1px;stroke-linecap:butt;stroke-linejoin:miter;stroke-opacity:1"
         d="m 140.17972,239.99451 71.98105,41.55828 -68.13537,34.00121 36.47557,21.05918 -68.50435,32.62405 37.15464,21.45124 -174.309927,23.66362 83.003583,-59.30568 -36.572573,-21.11519 68.377338,-32.18 -37.542678,-21.67528 z"
         id="path6087"
         inkscape:connector-curvature="0" />
    </clipPath>
    <clipPath
       clipPathUnits="userSpaceOnUse"
       id="clipPath6089">
      <path
         style="fill:none;fill-opacity:1;stroke:#000000;stroke-width:1px;stroke-linecap:butt;stroke-linejoin:miter;stroke-opacity:1"
         d="m 140.17972,239.99451 71.98105,41.55828 -68.13537,34.00121 36.47557,21.05918 -68.50435,32.62405 37.15464,21.45124 -174.309927,23.66362 83.003583,-59.30568 -36.572573,-21.11519 68.377338,-32.18 -37.542678,-21.67528 z"
         id="path6091"
         inkscape:connector-curvature="0" />
    </clipPath>
  </defs>
  <sodipodi:namedview
     pagecolor="#ffffff"
     bordercolor="#666666"
     borderopacity="1"
     objecttolerance="10"
     gridtolerance="10"
     guidetolerance="10"
     inkscape:pageopacity="0"
     inkscape:pageshadow="2"
     inkscape:window-width="1920"
     inkscape:window-height="1001"
     id="namedview12"
     showgrid="false"
     inkscape:zoom="2.7949219"
     inkscape:cx="255.10552"
     inkscape:cy="307.08454"
     inkscape:window-x="-9"
     inkscape:window-y="-9"
     inkscape:window-maximized="1"
     inkscape:current-layer="svg10" />
  <circle
     style="fill:#c794f9;fill-opacity:1;stroke-width:0.97356319"
     id="path20"
     cx="255.62262"
     cy="255.92935"
     r="189.75667" />
  <path
     style="fill:#000000;stroke:#000000;stroke-width:1px;stroke-linecap:butt;stroke-linejoin:miter;stroke-opacity:1;fill-opacity:1"
     d="m 240.36642,148.78141 h 83.11655 l -42.00634,63.5136 h 42.11835 l -43.01448,62.50543 h 42.90247 l -139.125,107.64826 42.23037,-92.86202 h -42.23037 l 43.12651,-62.05737 h -43.35055 z"
     id="path22-6"
     inkscape:connector-curvature="0" />
  <rect
     style="fill:#20025c;fill-opacity:1;stroke:none;stroke-width:1.23595715;stroke-opacity:1"
     id="rect6020"
     width="244.90985"
     height="45.095993"
     x="-25.158667"
     y="279.80267"
     transform="rotate(-30)"
     clip-path="url(#clipPath6089)" />
  <rect
     style="fill:#8343f9;fill-opacity:1;stroke:none;stroke-width:1.23088658;stroke-opacity:1"
     id="rect6020-0"
     width="244.90985"
     height="44.726727"
     x="-25.158667"
     y="369.62537"
     transform="rotate(-30)"
     clip-path="url(#clipPath6085)" />
  <rect
     style="fill:#4501c7;fill-opacity:1;stroke:none;stroke-width:1.23257911;stroke-opacity:1"
     id="rect6020-9"
     width="244.90985"
     height="44.849812"
     x="-25.158667"
     y="324.77557"
     transform="rotate(-30)"
     clip-path="url(#clipPath6081)" />
  <rect
     style="fill:#1a0932;fill-opacity:1;stroke:none;stroke-width:1.23257911;stroke-opacity:1"
     id="rect6020-1"
     width="244.90985"
     height="44.849812"
     x="-25.158667"
     y="235.19904"
     transform="rotate(-30)"
     clip-path="url(#clipPath6077)" />
  <path
     style="fill:none;fill-opacity:1;stroke:#000000;stroke-width:1px;stroke-linecap:butt;stroke-linejoin:miter;stroke-opacity:1"
     d="m 241.39645,137.75148 h 83.11654 l -42.00633,63.5136 H 324.625 l -43.01447,62.50543 h 42.90246 L 185.388,371.41877 227.61837,278.55675 H 185.388 l 43.12651,-62.05737 h -43.35055 z"
     id="path22-6-1"
     inkscape:connector-curvature="0" />
</svg>
